<svg id="outlines" xmlns="http://www.w3.org/2000/svg" viewBox="0 0 481.14 206.7"><defs><style>.cls-1{fill:#231f20;}.cls-2{fill:#fff;}.cls-3{fill:#733ca6;}.cls-4{fill:#f9aba6;}.cls-5{fill:#f2564d;}</style></defs><title>svg</title><path class="cls-1" d="M222.56,115.11a7.07,7.07,0,0,1-2.79,2.27,7.57,7.57,0,0,1-3.09.66,10.79,10.79,0,0,1-4.44-.87,9.42,9.42,0,0,1-3.3-2.37,10.35,10.35,0,0,1-2.07-3.53,13,13,0,0,1-.72-4.35,13.42,13.42,0,0,1,.72-4.44,10.72,10.72,0,0,1,2.07-3.61,9.6,9.6,0,0,1,3.3-2.39,10.79,10.79,0,0,1,4.44-.87,10.37,10.37,0,0,1,3.19.49,9.09,9.09,0,0,1,2.78,1.45,8.52,8.52,0,0,1,2,2.37,8,8,0,0,1,1,3.25h-4.5a4.51,4.51,0,0,0-1.64-2.71,4.77,4.77,0,0,0-2.89-.89,5.5,5.5,0,0,0-2.7.61,5.1,5.1,0,0,0-1.8,1.65,7.27,7.27,0,0,0-1,2.36,11.72,11.72,0,0,0-.31,2.73,10.86,10.86,0,0,0,.31,2.62,7,7,0,0,0,1,2.29,5.07,5.07,0,0,0,1.8,1.64,5.5,5.5,0,0,0,2.7.61,4.61,4.61,0,0,0,5.1-4.62H217V106h9v11.58h-3Z"/><path class="cls-1" d="M229.49,96.12h4.71v17.46h10.44v4H229.49Z"/><path class="cls-1" d="M246.92,96.12h16v4H251.63v4.59H262v3.66H251.63v5.25h11.55v4H246.92Z"/><path class="cls-1" d="M271.85,96.12h4.83l8,21.42H279.8l-1.62-4.77h-8l-1.68,4.77h-4.77Zm-.45,13.13H277l-2.7-7.85h-.06Z"/><path class="cls-1" d="M286.19,96.12h4.68l8.94,14.37h.06V96.12h4.41v21.42h-4.71l-8.91-14.34h-.06v14.34h-4.41Z"/><path class="cls-2" d="M123.85,160.35,72.72,104.21l45.91-50.09,51.25,56.2Z"/><path class="cls-3" d="M123.85,160.35,72.72,104.21l45.91-50.09,51.25,56.2ZM76.11,104.21l47.75,52.44,42.63-46.34L118.63,57.82Z"/><polygon class="cls-4" points="85.75 145.8 155.03 69.79 141.8 55.23 72.53 131.24 85.75 145.8"/><polygon class="cls-5" points="98.98 160.37 140.97 114.28 127.74 99.71 85.75 145.8 98.98 160.37"/></svg>